<mxfile host="app.diagrams.net" modified="2023-12-16T17:28:34.237Z" agent="Mozilla/5.0 (Windows NT 10.0; Win64; x64) AppleWebKit/537.36 (KHTML, like Gecko) Chrome/120.0.0.0 Safari/537.36" etag="_xUpXVfgqo8uYZ_zKaMH" version="22.1.11" type="device">
  <diagram name="Page-1" id="i7138rakcVtdMsU7zqMl">
    <mxGraphModel dx="3183" dy="60" grid="1" gridSize="10" guides="1" tooltips="1" connect="1" arrows="1" fold="1" page="1" pageScale="1" pageWidth="850" pageHeight="1100" math="0" shadow="0">
      <root>
        <mxCell id="0" />
        <mxCell id="1" parent="0" />
        <mxCell id="HOYsdUXAlJBk6kTXdH8x-1" value="ATTACHED_TO" style="rhombus;whiteSpace=wrap;html=1;" vertex="1" parent="1">
          <mxGeometry x="735" y="2835" width="140" height="90" as="geometry" />
        </mxCell>
        <mxCell id="HOYsdUXAlJBk6kTXdH8x-2" value="" style="rounded=0;whiteSpace=wrap;html=1;" vertex="1" parent="1">
          <mxGeometry x="445" y="2850" width="120" height="60" as="geometry" />
        </mxCell>
        <mxCell id="HOYsdUXAlJBk6kTXdH8x-3" value="" style="rounded=0;whiteSpace=wrap;html=1;" vertex="1" parent="1">
          <mxGeometry x="1025" y="2850" width="130" height="60" as="geometry" />
        </mxCell>
        <mxCell id="HOYsdUXAlJBk6kTXdH8x-4" value="ATTACHED_TO" style="rhombus;whiteSpace=wrap;html=1;" vertex="1" parent="1">
          <mxGeometry x="1015" y="2640" width="150" height="100" as="geometry" />
        </mxCell>
        <mxCell id="HOYsdUXAlJBk6kTXdH8x-5" value="PASSENGER" style="rounded=0;whiteSpace=wrap;html=1;" vertex="1" parent="1">
          <mxGeometry x="35" y="2510" width="110" height="40" as="geometry" />
        </mxCell>
        <mxCell id="HOYsdUXAlJBk6kTXdH8x-6" value="TRANSPORTATION_HUB" style="rounded=0;whiteSpace=wrap;html=1;" vertex="1" parent="1">
          <mxGeometry x="540" y="2647.5" width="140" height="40" as="geometry" />
        </mxCell>
        <mxCell id="HOYsdUXAlJBk6kTXdH8x-7" value="VEHICLE" style="rounded=0;whiteSpace=wrap;html=1;" vertex="1" parent="1">
          <mxGeometry x="1440" y="2510" width="110" height="40" as="geometry" />
        </mxCell>
        <mxCell id="HOYsdUXAlJBk6kTXdH8x-8" value="TRANSPORTATION" style="rounded=0;whiteSpace=wrap;html=1;" vertex="1" parent="1">
          <mxGeometry x="1035" y="2510" width="115" height="40" as="geometry" />
        </mxCell>
        <mxCell id="HOYsdUXAlJBk6kTXdH8x-9" value="PAYMENT_CARD&lt;span id=&quot;docs-internal-guid-a368fe4d-7fff-fab8-b84e-1b425e451d34&quot;&gt;&lt;/span&gt;" style="rounded=0;whiteSpace=wrap;html=1;" vertex="1" parent="1">
          <mxGeometry x="455" y="2510" width="110" height="40" as="geometry" />
        </mxCell>
        <mxCell id="HOYsdUXAlJBk6kTXdH8x-10" value="LEG_INSTANCE" style="rounded=0;whiteSpace=wrap;html=1;" vertex="1" parent="1">
          <mxGeometry x="1035" y="2860" width="110" height="40" as="geometry" />
        </mxCell>
        <mxCell id="HOYsdUXAlJBk6kTXdH8x-11" value="TICKET" style="rounded=0;whiteSpace=wrap;html=1;" vertex="1" parent="1">
          <mxGeometry x="35" y="2860" width="110" height="40" as="geometry" />
        </mxCell>
        <mxCell id="HOYsdUXAlJBk6kTXdH8x-12" value="VEHICLE_TYPE" style="rounded=0;whiteSpace=wrap;html=1;" vertex="1" parent="1">
          <mxGeometry x="1445" y="2860" width="110" height="40" as="geometry" />
        </mxCell>
        <mxCell id="HOYsdUXAlJBk6kTXdH8x-13" value="SEAT" style="rounded=0;whiteSpace=wrap;html=1;" vertex="1" parent="1">
          <mxGeometry x="450" y="2860" width="110" height="40" as="geometry" />
        </mxCell>
        <mxCell id="HOYsdUXAlJBk6kTXdH8x-14" value="GENERATED_TO" style="rhombus;whiteSpace=wrap;html=1;" vertex="1" parent="1">
          <mxGeometry x="25" y="2660" width="130" height="80" as="geometry" />
        </mxCell>
        <mxCell id="HOYsdUXAlJBk6kTXdH8x-15" value="" style="endArrow=none;html=1;rounded=0;entryX=0.431;entryY=0.95;entryDx=0;entryDy=0;entryPerimeter=0;" edge="1" parent="1" target="HOYsdUXAlJBk6kTXdH8x-14">
          <mxGeometry width="50" height="50" relative="1" as="geometry">
            <mxPoint x="81" y="2860" as="sourcePoint" />
            <mxPoint x="125" y="2810" as="targetPoint" />
          </mxGeometry>
        </mxCell>
        <mxCell id="HOYsdUXAlJBk6kTXdH8x-16" value="" style="endArrow=none;html=1;rounded=0;entryX=0.431;entryY=0.95;entryDx=0;entryDy=0;entryPerimeter=0;" edge="1" parent="1">
          <mxGeometry width="50" height="50" relative="1" as="geometry">
            <mxPoint x="95" y="2860" as="sourcePoint" />
            <mxPoint x="95" y="2736" as="targetPoint" />
          </mxGeometry>
        </mxCell>
        <mxCell id="HOYsdUXAlJBk6kTXdH8x-17" value="" style="endArrow=none;html=1;rounded=0;entryX=0.431;entryY=0.95;entryDx=0;entryDy=0;entryPerimeter=0;" edge="1" parent="1">
          <mxGeometry width="50" height="50" relative="1" as="geometry">
            <mxPoint x="89.38" y="2660" as="sourcePoint" />
            <mxPoint x="89.38" y="2550" as="targetPoint" />
          </mxGeometry>
        </mxCell>
        <mxCell id="HOYsdUXAlJBk6kTXdH8x-18" value="N" style="text;html=1;strokeColor=none;fillColor=none;align=center;verticalAlign=middle;whiteSpace=wrap;rounded=0;" vertex="1" parent="1">
          <mxGeometry x="75" y="2730" width="60" height="30" as="geometry" />
        </mxCell>
        <mxCell id="HOYsdUXAlJBk6kTXdH8x-19" value="1" style="text;html=1;strokeColor=none;fillColor=none;align=center;verticalAlign=middle;whiteSpace=wrap;rounded=0;" vertex="1" parent="1">
          <mxGeometry x="75" y="2640" width="60" height="30" as="geometry" />
        </mxCell>
        <mxCell id="HOYsdUXAlJBk6kTXdH8x-20" value="ATTACHED_TO" style="rhombus;whiteSpace=wrap;html=1;" vertex="1" parent="1">
          <mxGeometry x="230" y="2490" width="130" height="80" as="geometry" />
        </mxCell>
        <mxCell id="HOYsdUXAlJBk6kTXdH8x-21" value="" style="endArrow=none;html=1;rounded=0;entryX=0.123;entryY=0.363;entryDx=0;entryDy=0;exitX=1;exitY=0.5;exitDx=0;exitDy=0;entryPerimeter=0;" edge="1" parent="1" target="HOYsdUXAlJBk6kTXdH8x-20">
          <mxGeometry width="50" height="50" relative="1" as="geometry">
            <mxPoint x="145" y="2520" as="sourcePoint" />
            <mxPoint x="230" y="2520" as="targetPoint" />
          </mxGeometry>
        </mxCell>
        <mxCell id="HOYsdUXAlJBk6kTXdH8x-22" value="" style="endArrow=none;html=1;rounded=0;exitX=1;exitY=0.5;exitDx=0;exitDy=0;" edge="1" parent="1">
          <mxGeometry width="50" height="50" relative="1" as="geometry">
            <mxPoint x="145" y="2530.37" as="sourcePoint" />
            <mxPoint x="235" y="2529" as="targetPoint" />
          </mxGeometry>
        </mxCell>
        <mxCell id="HOYsdUXAlJBk6kTXdH8x-23" value="" style="endArrow=none;html=1;rounded=0;entryX=0.123;entryY=0.363;entryDx=0;entryDy=0;exitX=1;exitY=0.5;exitDx=0;exitDy=0;entryPerimeter=0;" edge="1" parent="1">
          <mxGeometry width="50" height="50" relative="1" as="geometry">
            <mxPoint x="354" y="2525.3199999999997" as="sourcePoint" />
            <mxPoint x="455" y="2524.32" as="targetPoint" />
          </mxGeometry>
        </mxCell>
        <mxCell id="HOYsdUXAlJBk6kTXdH8x-24" value="" style="endArrow=none;html=1;rounded=0;exitX=1;exitY=0.5;exitDx=0;exitDy=0;" edge="1" parent="1">
          <mxGeometry width="50" height="50" relative="1" as="geometry">
            <mxPoint x="354" y="2535.69" as="sourcePoint" />
            <mxPoint x="455" y="2536" as="targetPoint" />
          </mxGeometry>
        </mxCell>
        <mxCell id="HOYsdUXAlJBk6kTXdH8x-25" value="1" style="text;html=1;strokeColor=none;fillColor=none;align=center;verticalAlign=middle;whiteSpace=wrap;rounded=0;" vertex="1" parent="1">
          <mxGeometry x="215" y="2490" width="60" height="30" as="geometry" />
        </mxCell>
        <mxCell id="HOYsdUXAlJBk6kTXdH8x-26" value="1" style="text;html=1;strokeColor=none;fillColor=none;align=center;verticalAlign=middle;whiteSpace=wrap;rounded=0;" vertex="1" parent="1">
          <mxGeometry x="325" y="2490" width="60" height="30" as="geometry" />
        </mxCell>
        <mxCell id="HOYsdUXAlJBk6kTXdH8x-27" value="INSTANCES" style="rhombus;whiteSpace=wrap;html=1;" vertex="1" parent="1">
          <mxGeometry x="1025" y="2650" width="130" height="80" as="geometry" />
        </mxCell>
        <mxCell id="HOYsdUXAlJBk6kTXdH8x-28" value="" style="endArrow=none;html=1;rounded=0;entryX=0.5;entryY=1;entryDx=0;entryDy=0;exitX=0.5;exitY=0;exitDx=0;exitDy=0;" edge="1" parent="1" source="HOYsdUXAlJBk6kTXdH8x-4" target="HOYsdUXAlJBk6kTXdH8x-8">
          <mxGeometry width="50" height="50" relative="1" as="geometry">
            <mxPoint x="895" y="2810" as="sourcePoint" />
            <mxPoint x="945" y="2760" as="targetPoint" />
          </mxGeometry>
        </mxCell>
        <mxCell id="HOYsdUXAlJBk6kTXdH8x-29" value="" style="endArrow=none;html=1;rounded=0;entryX=0.44;entryY=0.96;entryDx=0;entryDy=0;exitX=0.431;exitY=0.033;exitDx=0;exitDy=0;exitPerimeter=0;entryPerimeter=0;" edge="1" parent="1" source="HOYsdUXAlJBk6kTXdH8x-3" target="HOYsdUXAlJBk6kTXdH8x-4">
          <mxGeometry width="50" height="50" relative="1" as="geometry">
            <mxPoint x="1084" y="2830" as="sourcePoint" />
            <mxPoint x="1084" y="2740" as="targetPoint" />
          </mxGeometry>
        </mxCell>
        <mxCell id="HOYsdUXAlJBk6kTXdH8x-30" value="" style="endArrow=none;html=1;rounded=0;exitX=0.431;exitY=0.033;exitDx=0;exitDy=0;exitPerimeter=0;" edge="1" parent="1">
          <mxGeometry width="50" height="50" relative="1" as="geometry">
            <mxPoint x="1095" y="2850" as="sourcePoint" />
            <mxPoint x="1095" y="2740" as="targetPoint" />
          </mxGeometry>
        </mxCell>
        <mxCell id="HOYsdUXAlJBk6kTXdH8x-31" value="1" style="text;html=1;strokeColor=none;fillColor=none;align=center;verticalAlign=middle;whiteSpace=wrap;rounded=0;" vertex="1" parent="1">
          <mxGeometry x="1075" y="2620" width="60" height="30" as="geometry" />
        </mxCell>
        <mxCell id="HOYsdUXAlJBk6kTXdH8x-32" value="N" style="text;html=1;strokeColor=none;fillColor=none;align=center;verticalAlign=middle;whiteSpace=wrap;rounded=0;" vertex="1" parent="1">
          <mxGeometry x="1085" y="2730" width="60" height="30" as="geometry" />
        </mxCell>
        <mxCell id="HOYsdUXAlJBk6kTXdH8x-33" value="RESERVED_TO" style="rhombus;whiteSpace=wrap;html=1;" vertex="1" parent="1">
          <mxGeometry x="745" y="2845" width="120" height="70" as="geometry" />
        </mxCell>
        <mxCell id="HOYsdUXAlJBk6kTXdH8x-34" value="" style="endArrow=none;html=1;rounded=0;entryX=0.5;entryY=1;entryDx=0;entryDy=0;exitX=0;exitY=0.5;exitDx=0;exitDy=0;" edge="1" parent="1" source="HOYsdUXAlJBk6kTXdH8x-3" target="HOYsdUXAlJBk6kTXdH8x-35">
          <mxGeometry width="50" height="50" relative="1" as="geometry">
            <mxPoint x="745" y="2810" as="sourcePoint" />
            <mxPoint x="805" y="2880" as="targetPoint" />
          </mxGeometry>
        </mxCell>
        <mxCell id="HOYsdUXAlJBk6kTXdH8x-35" value="1" style="text;html=1;strokeColor=none;fillColor=none;align=center;verticalAlign=middle;whiteSpace=wrap;rounded=0;" vertex="1" parent="1">
          <mxGeometry x="845" y="2850" width="60" height="30" as="geometry" />
        </mxCell>
        <mxCell id="HOYsdUXAlJBk6kTXdH8x-36" value="" style="endArrow=none;html=1;rounded=0;" edge="1" parent="1">
          <mxGeometry width="50" height="50" relative="1" as="geometry">
            <mxPoint x="565" y="2870" as="sourcePoint" />
            <mxPoint x="750" y="2870" as="targetPoint" />
          </mxGeometry>
        </mxCell>
        <mxCell id="HOYsdUXAlJBk6kTXdH8x-37" value="" style="endArrow=none;html=1;rounded=0;entryX=0;entryY=0.5;entryDx=0;entryDy=0;exitX=1;exitY=0.5;exitDx=0;exitDy=0;" edge="1" parent="1" source="HOYsdUXAlJBk6kTXdH8x-2" target="HOYsdUXAlJBk6kTXdH8x-1">
          <mxGeometry width="50" height="50" relative="1" as="geometry">
            <mxPoint x="565" y="2890" as="sourcePoint" />
            <mxPoint x="675" y="2890" as="targetPoint" />
          </mxGeometry>
        </mxCell>
        <mxCell id="HOYsdUXAlJBk6kTXdH8x-38" value="N" style="text;html=1;strokeColor=none;fillColor=none;align=center;verticalAlign=middle;whiteSpace=wrap;rounded=0;" vertex="1" parent="1">
          <mxGeometry x="705" y="2845" width="60" height="30" as="geometry" />
        </mxCell>
        <mxCell id="HOYsdUXAlJBk6kTXdH8x-39" value="BOOKS" style="rhombus;whiteSpace=wrap;html=1;" vertex="1" parent="1">
          <mxGeometry x="230" y="2840" width="130" height="80" as="geometry" />
        </mxCell>
        <mxCell id="HOYsdUXAlJBk6kTXdH8x-40" value="" style="endArrow=none;html=1;rounded=0;exitX=1;exitY=0.25;exitDx=0;exitDy=0;entryX=0.092;entryY=0.375;entryDx=0;entryDy=0;entryPerimeter=0;" edge="1" parent="1" source="HOYsdUXAlJBk6kTXdH8x-11" target="HOYsdUXAlJBk6kTXdH8x-39">
          <mxGeometry width="50" height="50" relative="1" as="geometry">
            <mxPoint x="575" y="2800" as="sourcePoint" />
            <mxPoint x="625" y="2750" as="targetPoint" />
          </mxGeometry>
        </mxCell>
        <mxCell id="HOYsdUXAlJBk6kTXdH8x-41" value="" style="endArrow=none;html=1;rounded=0;exitX=1;exitY=0.5;exitDx=0;exitDy=0;" edge="1" parent="1" source="HOYsdUXAlJBk6kTXdH8x-11">
          <mxGeometry width="50" height="50" relative="1" as="geometry">
            <mxPoint x="155" y="2880" as="sourcePoint" />
            <mxPoint x="235" y="2880" as="targetPoint" />
          </mxGeometry>
        </mxCell>
        <mxCell id="HOYsdUXAlJBk6kTXdH8x-42" value="" style="endArrow=none;html=1;rounded=0;exitX=1;exitY=0.5;exitDx=0;exitDy=0;entryX=0;entryY=0.5;entryDx=0;entryDy=0;" edge="1" parent="1" source="HOYsdUXAlJBk6kTXdH8x-39" target="HOYsdUXAlJBk6kTXdH8x-2">
          <mxGeometry width="50" height="50" relative="1" as="geometry">
            <mxPoint x="575" y="2800" as="sourcePoint" />
            <mxPoint x="625" y="2750" as="targetPoint" />
          </mxGeometry>
        </mxCell>
        <mxCell id="HOYsdUXAlJBk6kTXdH8x-43" value="1" style="text;html=1;strokeColor=none;fillColor=none;align=center;verticalAlign=middle;whiteSpace=wrap;rounded=0;" vertex="1" parent="1">
          <mxGeometry x="330" y="2850" width="60" height="30" as="geometry" />
        </mxCell>
        <mxCell id="HOYsdUXAlJBk6kTXdH8x-44" value="1" style="text;html=1;strokeColor=none;fillColor=none;align=center;verticalAlign=middle;whiteSpace=wrap;rounded=0;" vertex="1" parent="1">
          <mxGeometry x="205" y="2850" width="60" height="30" as="geometry" />
        </mxCell>
        <mxCell id="HOYsdUXAlJBk6kTXdH8x-45" value="TYPE" style="rhombus;whiteSpace=wrap;html=1;" vertex="1" parent="1">
          <mxGeometry x="1435" y="2650" width="130" height="80" as="geometry" />
        </mxCell>
        <mxCell id="HOYsdUXAlJBk6kTXdH8x-46" value="" style="endArrow=none;html=1;rounded=0;exitX=0.423;exitY=0.062;exitDx=0;exitDy=0;exitPerimeter=0;" edge="1" parent="1" source="HOYsdUXAlJBk6kTXdH8x-45">
          <mxGeometry width="50" height="50" relative="1" as="geometry">
            <mxPoint x="980" y="2800" as="sourcePoint" />
            <mxPoint x="1490" y="2550" as="targetPoint" />
          </mxGeometry>
        </mxCell>
        <mxCell id="HOYsdUXAlJBk6kTXdH8x-47" value="" style="endArrow=none;html=1;rounded=0;" edge="1" parent="1">
          <mxGeometry width="50" height="50" relative="1" as="geometry">
            <mxPoint x="1500" y="2650" as="sourcePoint" />
            <mxPoint x="1500" y="2550" as="targetPoint" />
          </mxGeometry>
        </mxCell>
        <mxCell id="HOYsdUXAlJBk6kTXdH8x-48" value="" style="endArrow=none;html=1;rounded=0;entryX=0.5;entryY=1;entryDx=0;entryDy=0;exitX=0.5;exitY=0;exitDx=0;exitDy=0;" edge="1" parent="1" source="HOYsdUXAlJBk6kTXdH8x-12" target="HOYsdUXAlJBk6kTXdH8x-45">
          <mxGeometry width="50" height="50" relative="1" as="geometry">
            <mxPoint x="980" y="2800" as="sourcePoint" />
            <mxPoint x="1030" y="2750" as="targetPoint" />
          </mxGeometry>
        </mxCell>
        <mxCell id="HOYsdUXAlJBk6kTXdH8x-49" value="1" style="text;html=1;strokeColor=none;fillColor=none;align=center;verticalAlign=middle;whiteSpace=wrap;rounded=0;" vertex="1" parent="1">
          <mxGeometry x="1480" y="2720" width="60" height="30" as="geometry" />
        </mxCell>
        <mxCell id="HOYsdUXAlJBk6kTXdH8x-50" value="N" style="text;html=1;strokeColor=none;fillColor=none;align=center;verticalAlign=middle;whiteSpace=wrap;rounded=0;" vertex="1" parent="1">
          <mxGeometry x="1480" y="2630" width="60" height="30" as="geometry" />
        </mxCell>
        <mxCell id="HOYsdUXAlJBk6kTXdH8x-51" value="GUIDE" style="rounded=0;whiteSpace=wrap;html=1;" vertex="1" parent="1">
          <mxGeometry x="1030" y="3100" width="120" height="50" as="geometry" />
        </mxCell>
        <mxCell id="HOYsdUXAlJBk6kTXdH8x-52" value="GUIDES_IN" style="rhombus;whiteSpace=wrap;html=1;" vertex="1" parent="1">
          <mxGeometry x="1025" y="2960" width="130" height="80" as="geometry" />
        </mxCell>
        <mxCell id="HOYsdUXAlJBk6kTXdH8x-53" value="" style="endArrow=none;html=1;rounded=0;exitX=0.5;exitY=0;exitDx=0;exitDy=0;entryX=0.5;entryY=1;entryDx=0;entryDy=0;" edge="1" parent="1" source="HOYsdUXAlJBk6kTXdH8x-51" target="HOYsdUXAlJBk6kTXdH8x-52">
          <mxGeometry width="50" height="50" relative="1" as="geometry">
            <mxPoint x="785" y="2920" as="sourcePoint" />
            <mxPoint x="835" y="2870" as="targetPoint" />
          </mxGeometry>
        </mxCell>
        <mxCell id="HOYsdUXAlJBk6kTXdH8x-54" value="" style="endArrow=none;html=1;rounded=0;exitX=0.431;exitY=0.087;exitDx=0;exitDy=0;exitPerimeter=0;entryX=0.431;entryY=1.017;entryDx=0;entryDy=0;entryPerimeter=0;" edge="1" parent="1" source="HOYsdUXAlJBk6kTXdH8x-52" target="HOYsdUXAlJBk6kTXdH8x-3">
          <mxGeometry width="50" height="50" relative="1" as="geometry">
            <mxPoint x="785" y="2920" as="sourcePoint" />
            <mxPoint x="835" y="2870" as="targetPoint" />
          </mxGeometry>
        </mxCell>
        <mxCell id="HOYsdUXAlJBk6kTXdH8x-55" value="" style="endArrow=none;html=1;rounded=0;entryX=0.5;entryY=1;entryDx=0;entryDy=0;" edge="1" parent="1" target="HOYsdUXAlJBk6kTXdH8x-3">
          <mxGeometry width="50" height="50" relative="1" as="geometry">
            <mxPoint x="1090" y="2960" as="sourcePoint" />
            <mxPoint x="1091" y="2921" as="targetPoint" />
          </mxGeometry>
        </mxCell>
        <mxCell id="HOYsdUXAlJBk6kTXdH8x-56" value="1" style="text;html=1;strokeColor=none;fillColor=none;align=center;verticalAlign=middle;whiteSpace=wrap;rounded=0;" vertex="1" parent="1">
          <mxGeometry x="1075" y="3030" width="60" height="30" as="geometry" />
        </mxCell>
        <mxCell id="HOYsdUXAlJBk6kTXdH8x-57" value="N" style="text;html=1;strokeColor=none;fillColor=none;align=center;verticalAlign=middle;whiteSpace=wrap;rounded=0;" vertex="1" parent="1">
          <mxGeometry x="1085" y="2940" width="60" height="30" as="geometry" />
        </mxCell>
        <mxCell id="HOYsdUXAlJBk6kTXdH8x-58" value="ASSIGNED_TO" style="rhombus;whiteSpace=wrap;html=1;" vertex="1" parent="1">
          <mxGeometry x="1245" y="2650" width="130" height="80" as="geometry" />
        </mxCell>
        <mxCell id="HOYsdUXAlJBk6kTXdH8x-59" value="" style="endArrow=none;html=1;rounded=0;entryX=0;entryY=1;entryDx=0;entryDy=0;exitX=0.5;exitY=0;exitDx=0;exitDy=0;" edge="1" parent="1" source="HOYsdUXAlJBk6kTXdH8x-58" target="HOYsdUXAlJBk6kTXdH8x-7">
          <mxGeometry width="50" height="50" relative="1" as="geometry">
            <mxPoint x="945" y="2800" as="sourcePoint" />
            <mxPoint x="995" y="2750" as="targetPoint" />
          </mxGeometry>
        </mxCell>
        <mxCell id="HOYsdUXAlJBk6kTXdH8x-60" value="" style="endArrow=none;html=1;rounded=0;entryX=0.415;entryY=0.937;entryDx=0;entryDy=0;exitX=0.5;exitY=0;exitDx=0;exitDy=0;entryPerimeter=0;" edge="1" parent="1" target="HOYsdUXAlJBk6kTXdH8x-58">
          <mxGeometry width="50" height="50" relative="1" as="geometry">
            <mxPoint x="1150" y="2850" as="sourcePoint" />
            <mxPoint x="1280" y="2750" as="targetPoint" />
          </mxGeometry>
        </mxCell>
        <mxCell id="HOYsdUXAlJBk6kTXdH8x-61" value="" style="endArrow=none;html=1;rounded=0;entryX=0.5;entryY=1;entryDx=0;entryDy=0;" edge="1" parent="1" target="HOYsdUXAlJBk6kTXdH8x-58">
          <mxGeometry width="50" height="50" relative="1" as="geometry">
            <mxPoint x="1155" y="2860" as="sourcePoint" />
            <mxPoint x="1309" y="2735" as="targetPoint" />
          </mxGeometry>
        </mxCell>
        <mxCell id="HOYsdUXAlJBk6kTXdH8x-62" value="N" style="text;html=1;strokeColor=none;fillColor=none;align=center;verticalAlign=middle;whiteSpace=wrap;rounded=0;" vertex="1" parent="1">
          <mxGeometry x="1280" y="2730" width="60" height="30" as="geometry" />
        </mxCell>
        <mxCell id="HOYsdUXAlJBk6kTXdH8x-63" value="1" style="text;html=1;strokeColor=none;fillColor=none;align=center;verticalAlign=middle;whiteSpace=wrap;rounded=0;" vertex="1" parent="1">
          <mxGeometry x="1275" y="2630" width="60" height="30" as="geometry" />
        </mxCell>
        <mxCell id="HOYsdUXAlJBk6kTXdH8x-64" value="ARRIVAL_HUB" style="rhombus;whiteSpace=wrap;html=1;" vertex="1" parent="1">
          <mxGeometry x="770" y="2615" width="160" height="105" as="geometry" />
        </mxCell>
        <mxCell id="HOYsdUXAlJBk6kTXdH8x-65" value="DEPARTURE_HUB" style="rhombus;whiteSpace=wrap;html=1;" vertex="1" parent="1">
          <mxGeometry x="765" y="2480" width="170" height="100" as="geometry" />
        </mxCell>
        <mxCell id="HOYsdUXAlJBk6kTXdH8x-66" value="" style="shape=link;html=1;rounded=0;" edge="1" parent="1">
          <mxGeometry width="100" relative="1" as="geometry">
            <mxPoint x="935" y="2529" as="sourcePoint" />
            <mxPoint x="1035" y="2529.29" as="targetPoint" />
          </mxGeometry>
        </mxCell>
        <mxCell id="HOYsdUXAlJBk6kTXdH8x-67" value="" style="shape=link;html=1;rounded=0;exitX=1;exitY=0.5;exitDx=0;exitDy=0;entryX=0;entryY=1;entryDx=0;entryDy=0;" edge="1" parent="1" source="HOYsdUXAlJBk6kTXdH8x-64" target="HOYsdUXAlJBk6kTXdH8x-8">
          <mxGeometry width="100" relative="1" as="geometry">
            <mxPoint x="945" y="2539" as="sourcePoint" />
            <mxPoint x="1045" y="2539.29" as="targetPoint" />
          </mxGeometry>
        </mxCell>
        <mxCell id="HOYsdUXAlJBk6kTXdH8x-68" value="" style="endArrow=none;html=1;rounded=0;entryX=0;entryY=0.5;entryDx=0;entryDy=0;exitX=1;exitY=0;exitDx=0;exitDy=0;" edge="1" parent="1" source="HOYsdUXAlJBk6kTXdH8x-6" target="HOYsdUXAlJBk6kTXdH8x-65">
          <mxGeometry width="50" height="50" relative="1" as="geometry">
            <mxPoint x="635" y="2860" as="sourcePoint" />
            <mxPoint x="685" y="2810" as="targetPoint" />
          </mxGeometry>
        </mxCell>
        <mxCell id="HOYsdUXAlJBk6kTXdH8x-69" value="" style="endArrow=none;html=1;rounded=0;entryX=0;entryY=0.5;entryDx=0;entryDy=0;exitX=1;exitY=0.5;exitDx=0;exitDy=0;" edge="1" parent="1" source="HOYsdUXAlJBk6kTXdH8x-6" target="HOYsdUXAlJBk6kTXdH8x-64">
          <mxGeometry width="50" height="50" relative="1" as="geometry">
            <mxPoint x="635" y="2860" as="sourcePoint" />
            <mxPoint x="685" y="2810" as="targetPoint" />
          </mxGeometry>
        </mxCell>
        <mxCell id="HOYsdUXAlJBk6kTXdH8x-70" value="N" style="text;html=1;strokeColor=none;fillColor=none;align=center;verticalAlign=middle;whiteSpace=wrap;rounded=0;" vertex="1" parent="1">
          <mxGeometry x="895" y="2640" width="60" height="30" as="geometry" />
        </mxCell>
        <mxCell id="HOYsdUXAlJBk6kTXdH8x-71" value="N" style="text;html=1;strokeColor=none;fillColor=none;align=center;verticalAlign=middle;whiteSpace=wrap;rounded=0;" vertex="1" parent="1">
          <mxGeometry x="905" y="2500" width="60" height="30" as="geometry" />
        </mxCell>
        <mxCell id="HOYsdUXAlJBk6kTXdH8x-72" value="1" style="text;html=1;strokeColor=none;fillColor=none;align=center;verticalAlign=middle;whiteSpace=wrap;rounded=0;" vertex="1" parent="1">
          <mxGeometry x="735" y="2640" width="60" height="30" as="geometry" />
        </mxCell>
        <mxCell id="HOYsdUXAlJBk6kTXdH8x-73" value="1" style="text;html=1;strokeColor=none;fillColor=none;align=center;verticalAlign=middle;whiteSpace=wrap;rounded=0;" vertex="1" parent="1">
          <mxGeometry x="725" y="2510" width="60" height="30" as="geometry" />
        </mxCell>
        <mxCell id="HOYsdUXAlJBk6kTXdH8x-74" value="VOYAGE_HISTORY" style="rhombus;whiteSpace=wrap;html=1;" vertex="1" parent="1">
          <mxGeometry x="330" y="2660" width="140" height="80" as="geometry" />
        </mxCell>
        <mxCell id="HOYsdUXAlJBk6kTXdH8x-75" value="" style="endArrow=none;html=1;rounded=0;exitX=1;exitY=1;exitDx=0;exitDy=0;entryX=0;entryY=0.5;entryDx=0;entryDy=0;" edge="1" parent="1" source="HOYsdUXAlJBk6kTXdH8x-5" target="HOYsdUXAlJBk6kTXdH8x-74">
          <mxGeometry width="50" height="50" relative="1" as="geometry">
            <mxPoint x="765" y="2840" as="sourcePoint" />
            <mxPoint x="815" y="2790" as="targetPoint" />
          </mxGeometry>
        </mxCell>
        <mxCell id="HOYsdUXAlJBk6kTXdH8x-76" value="" style="endArrow=none;html=1;rounded=0;exitX=1;exitY=0.5;exitDx=0;exitDy=0;entryX=0;entryY=0;entryDx=0;entryDy=0;" edge="1" parent="1" source="HOYsdUXAlJBk6kTXdH8x-74" target="HOYsdUXAlJBk6kTXdH8x-3">
          <mxGeometry width="50" height="50" relative="1" as="geometry">
            <mxPoint x="765" y="2840" as="sourcePoint" />
            <mxPoint x="815" y="2790" as="targetPoint" />
          </mxGeometry>
        </mxCell>
        <mxCell id="HOYsdUXAlJBk6kTXdH8x-77" value="M" style="text;html=1;strokeColor=none;fillColor=none;align=center;verticalAlign=middle;whiteSpace=wrap;rounded=0;" vertex="1" parent="1">
          <mxGeometry x="305" y="2670" width="60" height="30" as="geometry" />
        </mxCell>
        <mxCell id="HOYsdUXAlJBk6kTXdH8x-78" value="N" style="text;html=1;strokeColor=none;fillColor=none;align=center;verticalAlign=middle;whiteSpace=wrap;rounded=0;" vertex="1" parent="1">
          <mxGeometry x="445" y="2675" width="60" height="30" as="geometry" />
        </mxCell>
        <mxCell id="HOYsdUXAlJBk6kTXdH8x-79" value="&lt;u&gt;Passenger_id&lt;/u&gt;" style="ellipse;whiteSpace=wrap;html=1;" vertex="1" parent="1">
          <mxGeometry x="-45" y="2380" width="120" height="50" as="geometry" />
        </mxCell>
        <mxCell id="HOYsdUXAlJBk6kTXdH8x-80" value="" style="endArrow=none;html=1;rounded=0;exitX=0;exitY=0;exitDx=0;exitDy=0;entryX=0.5;entryY=1;entryDx=0;entryDy=0;" edge="1" parent="1" source="HOYsdUXAlJBk6kTXdH8x-5" target="HOYsdUXAlJBk6kTXdH8x-79">
          <mxGeometry width="50" height="50" relative="1" as="geometry">
            <mxPoint x="775" y="2820" as="sourcePoint" />
            <mxPoint x="825" y="2770" as="targetPoint" />
          </mxGeometry>
        </mxCell>
        <mxCell id="HOYsdUXAlJBk6kTXdH8x-81" value="Ticket_price" style="ellipse;whiteSpace=wrap;html=1;dashed=1;" vertex="1" parent="1">
          <mxGeometry x="-20" y="2935" width="85" height="30" as="geometry" />
        </mxCell>
        <mxCell id="HOYsdUXAlJBk6kTXdH8x-82" value="Name" style="ellipse;whiteSpace=wrap;html=1;" vertex="1" parent="1">
          <mxGeometry x="110" y="2410" width="105" height="40" as="geometry" />
        </mxCell>
        <mxCell id="HOYsdUXAlJBk6kTXdH8x-83" value="Fname" style="ellipse;whiteSpace=wrap;html=1;" vertex="1" parent="1">
          <mxGeometry x="65" y="2350" width="105" height="40" as="geometry" />
        </mxCell>
        <mxCell id="HOYsdUXAlJBk6kTXdH8x-84" value="Total_amount" style="ellipse;whiteSpace=wrap;html=1;" vertex="1" parent="1">
          <mxGeometry x="565" y="2430" width="110" height="45" as="geometry" />
        </mxCell>
        <mxCell id="HOYsdUXAlJBk6kTXdH8x-85" value="Lname" style="ellipse;whiteSpace=wrap;html=1;" vertex="1" parent="1">
          <mxGeometry x="182.5" y="2350" width="105" height="40" as="geometry" />
        </mxCell>
        <mxCell id="HOYsdUXAlJBk6kTXdH8x-86" value="" style="endArrow=none;html=1;rounded=0;entryX=0.5;entryY=1;entryDx=0;entryDy=0;exitX=0.25;exitY=0;exitDx=0;exitDy=0;" edge="1" parent="1" source="HOYsdUXAlJBk6kTXdH8x-9" target="HOYsdUXAlJBk6kTXdH8x-103">
          <mxGeometry width="50" height="50" relative="1" as="geometry">
            <mxPoint x="775" y="2820" as="sourcePoint" />
            <mxPoint x="825" y="2770" as="targetPoint" />
          </mxGeometry>
        </mxCell>
        <mxCell id="HOYsdUXAlJBk6kTXdH8x-87" value="" style="endArrow=none;html=1;rounded=0;exitX=0.5;exitY=0;exitDx=0;exitDy=0;entryX=0.25;entryY=1;entryDx=0;entryDy=0;" edge="1" parent="1" source="HOYsdUXAlJBk6kTXdH8x-81" target="HOYsdUXAlJBk6kTXdH8x-11">
          <mxGeometry width="50" height="50" relative="1" as="geometry">
            <mxPoint x="355" y="2940" as="sourcePoint" />
            <mxPoint x="405" y="2890" as="targetPoint" />
          </mxGeometry>
        </mxCell>
        <mxCell id="HOYsdUXAlJBk6kTXdH8x-88" value="Class_type" style="ellipse;whiteSpace=wrap;html=1;" vertex="1" parent="1">
          <mxGeometry x="109" y="2940" width="80" height="30" as="geometry" />
        </mxCell>
        <mxCell id="HOYsdUXAlJBk6kTXdH8x-89" value="Gender" style="ellipse;whiteSpace=wrap;html=1;" vertex="1" parent="1">
          <mxGeometry x="-95" y="2450" width="90" height="35" as="geometry" />
        </mxCell>
        <mxCell id="HOYsdUXAlJBk6kTXdH8x-90" value="" style="endArrow=none;html=1;rounded=0;exitX=0.5;exitY=1;exitDx=0;exitDy=0;entryX=0;entryY=0;entryDx=0;entryDy=0;" edge="1" parent="1" source="HOYsdUXAlJBk6kTXdH8x-83" target="HOYsdUXAlJBk6kTXdH8x-82">
          <mxGeometry width="50" height="50" relative="1" as="geometry">
            <mxPoint x="775" y="2820" as="sourcePoint" />
            <mxPoint x="825" y="2770" as="targetPoint" />
          </mxGeometry>
        </mxCell>
        <mxCell id="HOYsdUXAlJBk6kTXdH8x-91" value="" style="endArrow=none;html=1;rounded=0;entryX=0;entryY=1;entryDx=0;entryDy=0;exitX=0.75;exitY=0;exitDx=0;exitDy=0;" edge="1" parent="1" source="HOYsdUXAlJBk6kTXdH8x-9" target="HOYsdUXAlJBk6kTXdH8x-84">
          <mxGeometry width="50" height="50" relative="1" as="geometry">
            <mxPoint x="493" y="2520" as="sourcePoint" />
            <mxPoint x="485" y="2465" as="targetPoint" />
          </mxGeometry>
        </mxCell>
        <mxCell id="HOYsdUXAlJBk6kTXdH8x-92" value="" style="endArrow=none;html=1;rounded=0;" edge="1" parent="1">
          <mxGeometry width="50" height="50" relative="1" as="geometry">
            <mxPoint x="1450" y="2510" as="sourcePoint" />
            <mxPoint x="1400" y="2440" as="targetPoint" />
          </mxGeometry>
        </mxCell>
        <mxCell id="HOYsdUXAlJBk6kTXdH8x-93" value="" style="endArrow=none;html=1;rounded=0;exitX=0.5;exitY=1;exitDx=0;exitDy=0;entryX=1;entryY=0;entryDx=0;entryDy=0;" edge="1" parent="1" source="HOYsdUXAlJBk6kTXdH8x-85" target="HOYsdUXAlJBk6kTXdH8x-82">
          <mxGeometry width="50" height="50" relative="1" as="geometry">
            <mxPoint x="128" y="2400" as="sourcePoint" />
            <mxPoint x="136" y="2426" as="targetPoint" />
          </mxGeometry>
        </mxCell>
        <mxCell id="HOYsdUXAlJBk6kTXdH8x-94" value="" style="endArrow=none;html=1;rounded=0;exitX=1;exitY=1;exitDx=0;exitDy=0;entryX=0;entryY=0.25;entryDx=0;entryDy=0;" edge="1" parent="1" source="HOYsdUXAlJBk6kTXdH8x-89" target="HOYsdUXAlJBk6kTXdH8x-5">
          <mxGeometry width="50" height="50" relative="1" as="geometry">
            <mxPoint x="775" y="2820" as="sourcePoint" />
            <mxPoint x="825" y="2770" as="targetPoint" />
          </mxGeometry>
        </mxCell>
        <mxCell id="HOYsdUXAlJBk6kTXdH8x-95" value="" style="endArrow=none;html=1;rounded=0;entryX=0.5;entryY=1;entryDx=0;entryDy=0;exitX=0.5;exitY=0;exitDx=0;exitDy=0;" edge="1" parent="1" source="HOYsdUXAlJBk6kTXdH8x-5" target="HOYsdUXAlJBk6kTXdH8x-82">
          <mxGeometry width="50" height="50" relative="1" as="geometry">
            <mxPoint x="775" y="2820" as="sourcePoint" />
            <mxPoint x="825" y="2770" as="targetPoint" />
          </mxGeometry>
        </mxCell>
        <mxCell id="HOYsdUXAlJBk6kTXdH8x-96" value="" style="endArrow=none;html=1;rounded=0;entryX=0.5;entryY=1;entryDx=0;entryDy=0;exitX=0.75;exitY=0;exitDx=0;exitDy=0;" edge="1" parent="1" source="HOYsdUXAlJBk6kTXdH8x-7" target="HOYsdUXAlJBk6kTXdH8x-104">
          <mxGeometry width="50" height="50" relative="1" as="geometry">
            <mxPoint x="1075" y="2730" as="sourcePoint" />
            <mxPoint x="1125" y="2680" as="targetPoint" />
          </mxGeometry>
        </mxCell>
        <mxCell id="HOYsdUXAlJBk6kTXdH8x-97" value="&lt;u&gt;Vehicle_ID&lt;/u&gt;" style="ellipse;whiteSpace=wrap;html=1;" vertex="1" parent="1">
          <mxGeometry x="1355" y="2400" width="70" height="40" as="geometry" />
        </mxCell>
        <mxCell id="HOYsdUXAlJBk6kTXdH8x-98" value="Age" style="ellipse;whiteSpace=wrap;html=1;" vertex="1" parent="1">
          <mxGeometry x="-95" y="2570" width="90" height="35" as="geometry" />
        </mxCell>
        <mxCell id="HOYsdUXAlJBk6kTXdH8x-99" value="" style="endArrow=none;html=1;rounded=0;exitX=0.434;exitY=-0.106;exitDx=0;exitDy=0;exitPerimeter=0;entryX=0.75;entryY=1;entryDx=0;entryDy=0;" edge="1" parent="1" source="HOYsdUXAlJBk6kTXdH8x-88" target="HOYsdUXAlJBk6kTXdH8x-11">
          <mxGeometry width="50" height="50" relative="1" as="geometry">
            <mxPoint x="355" y="2940" as="sourcePoint" />
            <mxPoint x="405" y="2890" as="targetPoint" />
          </mxGeometry>
        </mxCell>
        <mxCell id="HOYsdUXAlJBk6kTXdH8x-100" value="" style="endArrow=none;html=1;rounded=0;exitX=0.769;exitY=0;exitDx=0;exitDy=0;exitPerimeter=0;entryX=0;entryY=1;entryDx=0;entryDy=0;" edge="1" parent="1" source="HOYsdUXAlJBk6kTXdH8x-101" target="HOYsdUXAlJBk6kTXdH8x-51">
          <mxGeometry width="50" height="50" relative="1" as="geometry">
            <mxPoint x="1115" y="3180" as="sourcePoint" />
            <mxPoint x="1165" y="3130" as="targetPoint" />
          </mxGeometry>
        </mxCell>
        <mxCell id="HOYsdUXAlJBk6kTXdH8x-101" value="&lt;u&gt;Guide_id&lt;/u&gt;" style="ellipse;whiteSpace=wrap;html=1;" vertex="1" parent="1">
          <mxGeometry x="950" y="3180" width="65" height="40" as="geometry" />
        </mxCell>
        <mxCell id="HOYsdUXAlJBk6kTXdH8x-102" value="&lt;u&gt;Ticket_id&lt;/u&gt;" style="ellipse;whiteSpace=wrap;html=1;" vertex="1" parent="1">
          <mxGeometry x="45" y="2975" width="90" height="30" as="geometry" />
        </mxCell>
        <mxCell id="HOYsdUXAlJBk6kTXdH8x-103" value="&lt;u&gt;Card_id&lt;/u&gt;" style="ellipse;whiteSpace=wrap;html=1;" vertex="1" parent="1">
          <mxGeometry x="420" y="2410" width="110" height="45" as="geometry" />
        </mxCell>
        <mxCell id="HOYsdUXAlJBk6kTXdH8x-104" value="total_no_of_seats" style="ellipse;whiteSpace=wrap;html=1;" vertex="1" parent="1">
          <mxGeometry x="1495" y="2410" width="110" height="50" as="geometry" />
        </mxCell>
        <mxCell id="HOYsdUXAlJBk6kTXdH8x-105" value="" style="endArrow=none;html=1;rounded=0;entryX=1;entryY=0;entryDx=0;entryDy=0;" edge="1" parent="1" target="HOYsdUXAlJBk6kTXdH8x-98">
          <mxGeometry width="50" height="50" relative="1" as="geometry">
            <mxPoint x="35" y="2550" as="sourcePoint" />
            <mxPoint x="173" y="2460" as="targetPoint" />
          </mxGeometry>
        </mxCell>
        <mxCell id="HOYsdUXAlJBk6kTXdH8x-106" value="Passenger_type" style="ellipse;whiteSpace=wrap;html=1;" vertex="1" parent="1">
          <mxGeometry x="-95" y="2520" width="90" height="35" as="geometry" />
        </mxCell>
        <mxCell id="HOYsdUXAlJBk6kTXdH8x-107" value="" style="endArrow=none;html=1;rounded=0;exitX=0;exitY=0.75;exitDx=0;exitDy=0;" edge="1" parent="1" source="HOYsdUXAlJBk6kTXdH8x-5">
          <mxGeometry width="50" height="50" relative="1" as="geometry">
            <mxPoint x="165" y="2530" as="sourcePoint" />
            <mxPoint x="-5" y="2540" as="targetPoint" />
          </mxGeometry>
        </mxCell>
        <mxCell id="HOYsdUXAlJBk6kTXdH8x-108" value="Age" style="ellipse;whiteSpace=wrap;html=1;" vertex="1" parent="1">
          <mxGeometry x="1225" y="3180" width="80" height="40" as="geometry" />
        </mxCell>
        <mxCell id="HOYsdUXAlJBk6kTXdH8x-109" value="" style="endArrow=none;html=1;rounded=0;exitX=0.5;exitY=1;exitDx=0;exitDy=0;entryX=0.5;entryY=0;entryDx=0;entryDy=0;" edge="1" parent="1" source="HOYsdUXAlJBk6kTXdH8x-11" target="HOYsdUXAlJBk6kTXdH8x-102">
          <mxGeometry width="50" height="50" relative="1" as="geometry">
            <mxPoint x="355" y="2940" as="sourcePoint" />
            <mxPoint x="90" y="2970" as="targetPoint" />
          </mxGeometry>
        </mxCell>
        <mxCell id="HOYsdUXAlJBk6kTXdH8x-110" value="Gender" style="ellipse;whiteSpace=wrap;html=1;" vertex="1" parent="1">
          <mxGeometry x="985" y="3230" width="80" height="40" as="geometry" />
        </mxCell>
        <mxCell id="HOYsdUXAlJBk6kTXdH8x-111" value="Vehicle_type" style="ellipse;whiteSpace=wrap;html=1;" vertex="1" parent="1">
          <mxGeometry x="1465" y="2960" width="70" height="40" as="geometry" />
        </mxCell>
        <mxCell id="HOYsdUXAlJBk6kTXdH8x-112" value="Seat_capacity" style="ellipse;whiteSpace=wrap;html=1;" vertex="1" parent="1">
          <mxGeometry x="1315" y="2960" width="90" height="40" as="geometry" />
        </mxCell>
        <mxCell id="HOYsdUXAlJBk6kTXdH8x-113" value="" style="endArrow=none;html=1;rounded=0;exitX=0.5;exitY=0;exitDx=0;exitDy=0;entryX=0.209;entryY=1.032;entryDx=0;entryDy=0;entryPerimeter=0;" edge="1" parent="1" source="HOYsdUXAlJBk6kTXdH8x-110" target="HOYsdUXAlJBk6kTXdH8x-51">
          <mxGeometry width="50" height="50" relative="1" as="geometry">
            <mxPoint x="1085" y="3160" as="sourcePoint" />
            <mxPoint x="1135" y="3110" as="targetPoint" />
          </mxGeometry>
        </mxCell>
        <mxCell id="HOYsdUXAlJBk6kTXdH8x-114" value="" style="endArrow=none;html=1;rounded=0;exitX=0.5;exitY=0;exitDx=0;exitDy=0;entryX=0.5;entryY=1;entryDx=0;entryDy=0;" edge="1" parent="1" source="HOYsdUXAlJBk6kTXdH8x-137" target="HOYsdUXAlJBk6kTXdH8x-51">
          <mxGeometry width="50" height="50" relative="1" as="geometry">
            <mxPoint x="1090" y="3180" as="sourcePoint" />
            <mxPoint x="1154.52" y="3230" as="targetPoint" />
          </mxGeometry>
        </mxCell>
        <mxCell id="HOYsdUXAlJBk6kTXdH8x-115" value="Location" style="ellipse;whiteSpace=wrap;html=1;" vertex="1" parent="1">
          <mxGeometry x="675" y="2705" width="110" height="45" as="geometry" />
        </mxCell>
        <mxCell id="HOYsdUXAlJBk6kTXdH8x-116" value="Seat_no" style="ellipse;whiteSpace=wrap;html=1;fillColor=none;" vertex="1" parent="1">
          <mxGeometry x="470" y="2990" width="70" height="45" as="geometry" />
        </mxCell>
        <mxCell id="HOYsdUXAlJBk6kTXdH8x-117" value="&lt;u&gt;Port_id&lt;/u&gt;" style="ellipse;whiteSpace=wrap;html=1;" vertex="1" parent="1">
          <mxGeometry x="435" y="2580" width="110" height="45" as="geometry" />
        </mxCell>
        <mxCell id="HOYsdUXAlJBk6kTXdH8x-118" value="" style="endArrow=none;html=1;rounded=0;entryX=0.5;entryY=1;entryDx=0;entryDy=0;exitX=0.75;exitY=0;exitDx=0;exitDy=0;" edge="1" parent="1" source="HOYsdUXAlJBk6kTXdH8x-6" target="HOYsdUXAlJBk6kTXdH8x-119">
          <mxGeometry width="50" height="50" relative="1" as="geometry">
            <mxPoint x="548" y="2520" as="sourcePoint" />
            <mxPoint x="590" y="2478" as="targetPoint" />
          </mxGeometry>
        </mxCell>
        <mxCell id="HOYsdUXAlJBk6kTXdH8x-119" value="Name" style="ellipse;whiteSpace=wrap;html=1;" vertex="1" parent="1">
          <mxGeometry x="575" y="2540" width="110" height="45" as="geometry" />
        </mxCell>
        <mxCell id="HOYsdUXAlJBk6kTXdH8x-120" value="" style="endArrow=none;dashed=1;html=1;rounded=0;" edge="1" parent="1">
          <mxGeometry width="50" height="50" relative="1" as="geometry">
            <mxPoint x="1180" y="2950" as="sourcePoint" />
            <mxPoint x="1215" y="2950" as="targetPoint" />
          </mxGeometry>
        </mxCell>
        <mxCell id="HOYsdUXAlJBk6kTXdH8x-121" value="" style="endArrow=none;html=1;rounded=0;entryX=0.5;entryY=1;entryDx=0;entryDy=0;exitX=0.5;exitY=0;exitDx=0;exitDy=0;" edge="1" parent="1" source="HOYsdUXAlJBk6kTXdH8x-8" target="HOYsdUXAlJBk6kTXdH8x-131">
          <mxGeometry width="50" height="50" relative="1" as="geometry">
            <mxPoint x="775" y="2820" as="sourcePoint" />
            <mxPoint x="825" y="2770" as="targetPoint" />
          </mxGeometry>
        </mxCell>
        <mxCell id="HOYsdUXAlJBk6kTXdH8x-122" value="Leg_id" style="ellipse;whiteSpace=wrap;html=1;fillColor=none;" vertex="1" parent="1">
          <mxGeometry x="1152.5" y="2915" width="90" height="50" as="geometry" />
        </mxCell>
        <mxCell id="HOYsdUXAlJBk6kTXdH8x-123" value="" style="endArrow=none;html=1;rounded=0;exitX=0;exitY=0;exitDx=0;exitDy=0;entryX=0.75;entryY=1;entryDx=0;entryDy=0;" edge="1" parent="1" source="HOYsdUXAlJBk6kTXdH8x-115" target="HOYsdUXAlJBk6kTXdH8x-6">
          <mxGeometry width="50" height="50" relative="1" as="geometry">
            <mxPoint x="555" y="2658" as="sourcePoint" />
            <mxPoint x="645" y="2690" as="targetPoint" />
          </mxGeometry>
        </mxCell>
        <mxCell id="HOYsdUXAlJBk6kTXdH8x-124" value="" style="endArrow=none;html=1;rounded=0;exitX=0;exitY=0;exitDx=0;exitDy=0;entryX=0.861;entryY=1.041;entryDx=0;entryDy=0;entryPerimeter=0;" edge="1" parent="1" source="HOYsdUXAlJBk6kTXdH8x-122" target="HOYsdUXAlJBk6kTXdH8x-3">
          <mxGeometry width="50" height="50" relative="1" as="geometry">
            <mxPoint x="815" y="3040" as="sourcePoint" />
            <mxPoint x="865" y="2990" as="targetPoint" />
          </mxGeometry>
        </mxCell>
        <mxCell id="HOYsdUXAlJBk6kTXdH8x-125" value="" style="endArrow=none;dashed=1;html=1;rounded=0;" edge="1" parent="1">
          <mxGeometry width="50" height="50" relative="1" as="geometry">
            <mxPoint x="484.88" y="3020" as="sourcePoint" />
            <mxPoint x="525.12" y="3020.24" as="targetPoint" />
          </mxGeometry>
        </mxCell>
        <mxCell id="HOYsdUXAlJBk6kTXdH8x-126" value="" style="endArrow=none;html=1;rounded=0;exitX=1;exitY=0.5;exitDx=0;exitDy=0;entryX=0.25;entryY=1;entryDx=0;entryDy=0;" edge="1" parent="1" source="HOYsdUXAlJBk6kTXdH8x-132" target="HOYsdUXAlJBk6kTXdH8x-3">
          <mxGeometry width="50" height="50" relative="1" as="geometry">
            <mxPoint x="1065" y="3040" as="sourcePoint" />
            <mxPoint x="1115" y="2990" as="targetPoint" />
          </mxGeometry>
        </mxCell>
        <mxCell id="HOYsdUXAlJBk6kTXdH8x-127" value="" style="endArrow=none;html=1;rounded=0;exitX=1;exitY=0.5;exitDx=0;exitDy=0;entryX=0;entryY=1;entryDx=0;entryDy=0;" edge="1" parent="1" source="HOYsdUXAlJBk6kTXdH8x-129" target="HOYsdUXAlJBk6kTXdH8x-3">
          <mxGeometry width="50" height="50" relative="1" as="geometry">
            <mxPoint x="1075" y="3050" as="sourcePoint" />
            <mxPoint x="1125" y="3000" as="targetPoint" />
          </mxGeometry>
        </mxCell>
        <mxCell id="HOYsdUXAlJBk6kTXdH8x-128" value="" style="endArrow=none;html=1;rounded=0;" edge="1" parent="1">
          <mxGeometry width="50" height="50" relative="1" as="geometry">
            <mxPoint x="1375" y="2960" as="sourcePoint" />
            <mxPoint x="1455" y="2900" as="targetPoint" />
          </mxGeometry>
        </mxCell>
        <mxCell id="HOYsdUXAlJBk6kTXdH8x-129" value="Departure_datetime" style="ellipse;whiteSpace=wrap;html=1;" vertex="1" parent="1">
          <mxGeometry x="895" y="2900" width="110" height="50" as="geometry" />
        </mxCell>
        <mxCell id="HOYsdUXAlJBk6kTXdH8x-130" value="" style="endArrow=none;html=1;rounded=0;exitX=0;exitY=0;exitDx=0;exitDy=0;entryX=1;entryY=1;entryDx=0;entryDy=0;" edge="1" parent="1" source="HOYsdUXAlJBk6kTXdH8x-108" target="HOYsdUXAlJBk6kTXdH8x-51">
          <mxGeometry width="50" height="50" relative="1" as="geometry">
            <mxPoint x="1085" y="3160" as="sourcePoint" />
            <mxPoint x="1165" y="3160" as="targetPoint" />
          </mxGeometry>
        </mxCell>
        <mxCell id="HOYsdUXAlJBk6kTXdH8x-131" value="&lt;u&gt;Transportation_id&lt;/u&gt;" style="ellipse;whiteSpace=wrap;html=1;" vertex="1" parent="1">
          <mxGeometry x="1035" y="2415" width="110" height="45" as="geometry" />
        </mxCell>
        <mxCell id="HOYsdUXAlJBk6kTXdH8x-132" value="Arrival_datetime" style="ellipse;whiteSpace=wrap;html=1;" vertex="1" parent="1">
          <mxGeometry x="875" y="2970" width="90" height="50" as="geometry" />
        </mxCell>
        <mxCell id="HOYsdUXAlJBk6kTXdH8x-133" value="" style="endArrow=none;html=1;rounded=0;entryX=0.5;entryY=1;entryDx=0;entryDy=0;exitX=0.5;exitY=0;exitDx=0;exitDy=0;" edge="1" parent="1" source="HOYsdUXAlJBk6kTXdH8x-111" target="HOYsdUXAlJBk6kTXdH8x-12">
          <mxGeometry width="50" height="50" relative="1" as="geometry">
            <mxPoint x="1457" y="2965" as="sourcePoint" />
            <mxPoint x="1540" y="2907" as="targetPoint" />
          </mxGeometry>
        </mxCell>
        <mxCell id="HOYsdUXAlJBk6kTXdH8x-134" value="" style="endArrow=none;html=1;rounded=0;entryX=1;entryY=1;entryDx=0;entryDy=0;exitX=0;exitY=0;exitDx=0;exitDy=0;" edge="1" parent="1" source="HOYsdUXAlJBk6kTXdH8x-6" target="HOYsdUXAlJBk6kTXdH8x-117">
          <mxGeometry width="50" height="50" relative="1" as="geometry">
            <mxPoint x="638" y="2658" as="sourcePoint" />
            <mxPoint x="640" y="2595" as="targetPoint" />
          </mxGeometry>
        </mxCell>
        <mxCell id="HOYsdUXAlJBk6kTXdH8x-135" value="" style="endArrow=none;dashed=1;html=1;dashPattern=1 3;strokeWidth=2;rounded=0;" edge="1" parent="1" target="HOYsdUXAlJBk6kTXdH8x-116">
          <mxGeometry width="50" height="50" relative="1" as="geometry">
            <mxPoint x="480" y="3025" as="sourcePoint" />
            <mxPoint x="525" y="3060" as="targetPoint" />
          </mxGeometry>
        </mxCell>
        <mxCell id="HOYsdUXAlJBk6kTXdH8x-136" value="" style="endArrow=none;html=1;rounded=0;entryX=0.5;entryY=1;entryDx=0;entryDy=0;" edge="1" parent="1" target="HOYsdUXAlJBk6kTXdH8x-2">
          <mxGeometry width="50" height="50" relative="1" as="geometry">
            <mxPoint x="495" y="2990" as="sourcePoint" />
            <mxPoint x="463" y="2910" as="targetPoint" />
          </mxGeometry>
        </mxCell>
        <mxCell id="HOYsdUXAlJBk6kTXdH8x-137" value="Name" style="ellipse;whiteSpace=wrap;html=1;" vertex="1" parent="1">
          <mxGeometry x="1075" y="3210" width="105" height="40" as="geometry" />
        </mxCell>
        <mxCell id="HOYsdUXAlJBk6kTXdH8x-138" value="Fname" style="ellipse;whiteSpace=wrap;html=1;" vertex="1" parent="1">
          <mxGeometry x="1015" y="3300" width="105" height="40" as="geometry" />
        </mxCell>
        <mxCell id="HOYsdUXAlJBk6kTXdH8x-139" value="Lname" style="ellipse;whiteSpace=wrap;html=1;" vertex="1" parent="1">
          <mxGeometry x="1145" y="3290" width="105" height="40" as="geometry" />
        </mxCell>
        <mxCell id="HOYsdUXAlJBk6kTXdH8x-140" value="" style="endArrow=none;html=1;rounded=0;entryX=0.374;entryY=0.997;entryDx=0;entryDy=0;entryPerimeter=0;exitX=0.5;exitY=0;exitDx=0;exitDy=0;" edge="1" parent="1" source="HOYsdUXAlJBk6kTXdH8x-138" target="HOYsdUXAlJBk6kTXdH8x-137">
          <mxGeometry width="50" height="50" relative="1" as="geometry">
            <mxPoint x="1114" y="3300" as="sourcePoint" />
            <mxPoint x="1112" y="3280" as="targetPoint" />
          </mxGeometry>
        </mxCell>
        <mxCell id="HOYsdUXAlJBk6kTXdH8x-141" value="" style="endArrow=none;html=1;rounded=0;exitX=0.444;exitY=-0.068;exitDx=0;exitDy=0;entryX=1;entryY=1;entryDx=0;entryDy=0;exitPerimeter=0;" edge="1" parent="1" source="HOYsdUXAlJBk6kTXdH8x-139" target="HOYsdUXAlJBk6kTXdH8x-137">
          <mxGeometry width="50" height="50" relative="1" as="geometry">
            <mxPoint x="1263" y="3290" as="sourcePoint" />
            <mxPoint x="1225" y="3230" as="targetPoint" />
          </mxGeometry>
        </mxCell>
        <mxCell id="HOYsdUXAlJBk6kTXdH8x-142" value="No_of_avail_seats" style="ellipse;whiteSpace=wrap;html=1;dashed=1;" vertex="1" parent="1">
          <mxGeometry x="1175" y="3030" width="120" height="55" as="geometry" />
        </mxCell>
        <mxCell id="HOYsdUXAlJBk6kTXdH8x-143" value="" style="endArrow=none;html=1;rounded=0;exitX=0.155;exitY=0.067;exitDx=0;exitDy=0;entryX=0.593;entryY=1.052;entryDx=0;entryDy=0;exitPerimeter=0;entryPerimeter=0;" edge="1" parent="1" source="HOYsdUXAlJBk6kTXdH8x-142" target="HOYsdUXAlJBk6kTXdH8x-3">
          <mxGeometry width="50" height="50" relative="1" as="geometry">
            <mxPoint x="1015" y="3005" as="sourcePoint" />
            <mxPoint x="1068" y="2920" as="targetPoint" />
          </mxGeometry>
        </mxCell>
        <mxCell id="HOYsdUXAlJBk6kTXdH8x-144" value="&lt;u&gt;Type_id&lt;/u&gt;" style="ellipse;whiteSpace=wrap;html=1;" vertex="1" parent="1">
          <mxGeometry x="1550" y="2960" width="70" height="40" as="geometry" />
        </mxCell>
        <mxCell id="HOYsdUXAlJBk6kTXdH8x-145" value="" style="endArrow=none;html=1;rounded=0;entryX=0.75;entryY=1;entryDx=0;entryDy=0;exitX=0;exitY=0;exitDx=0;exitDy=0;" edge="1" parent="1" source="HOYsdUXAlJBk6kTXdH8x-144" target="HOYsdUXAlJBk6kTXdH8x-12">
          <mxGeometry width="50" height="50" relative="1" as="geometry">
            <mxPoint x="1510" y="2970" as="sourcePoint" />
            <mxPoint x="1510" y="2910" as="targetPoint" />
          </mxGeometry>
        </mxCell>
        <mxCell id="HOYsdUXAlJBk6kTXdH8x-146" value="Price" style="ellipse;whiteSpace=wrap;html=1;" vertex="1" parent="1">
          <mxGeometry x="905" y="3040" width="90" height="50" as="geometry" />
        </mxCell>
        <mxCell id="HOYsdUXAlJBk6kTXdH8x-147" value="" style="endArrow=none;html=1;rounded=0;exitX=0.756;exitY=0.1;exitDx=0;exitDy=0;exitPerimeter=0;entryX=0.354;entryY=0.983;entryDx=0;entryDy=0;entryPerimeter=0;" edge="1" parent="1" source="HOYsdUXAlJBk6kTXdH8x-146" target="HOYsdUXAlJBk6kTXdH8x-3">
          <mxGeometry width="50" height="50" relative="1" as="geometry">
            <mxPoint x="1015" y="3020" as="sourcePoint" />
            <mxPoint x="1065" y="2970" as="targetPoint" />
          </mxGeometry>
        </mxCell>
        <mxCell id="HOYsdUXAlJBk6kTXdH8x-148" value="SEARCH_HISTORY" style="rhombus;whiteSpace=wrap;html=1;" vertex="1" parent="1">
          <mxGeometry x="500" y="2260" width="150" height="80" as="geometry" />
        </mxCell>
        <mxCell id="HOYsdUXAlJBk6kTXdH8x-149" value="M" style="text;html=1;strokeColor=none;fillColor=none;align=center;verticalAlign=middle;whiteSpace=wrap;rounded=0;" vertex="1" parent="1">
          <mxGeometry x="465" y="2280" width="60" height="30" as="geometry" />
        </mxCell>
        <mxCell id="HOYsdUXAlJBk6kTXdH8x-150" value="N" style="text;html=1;strokeColor=none;fillColor=none;align=center;verticalAlign=middle;whiteSpace=wrap;rounded=0;" vertex="1" parent="1">
          <mxGeometry x="625" y="2280" width="60" height="30" as="geometry" />
        </mxCell>
        <mxCell id="HOYsdUXAlJBk6kTXdH8x-151" value="searched_time" style="ellipse;whiteSpace=wrap;html=1;" vertex="1" parent="1">
          <mxGeometry x="620" y="2170" width="110" height="50" as="geometry" />
        </mxCell>
        <mxCell id="HOYsdUXAlJBk6kTXdH8x-152" value="" style="endArrow=none;html=1;rounded=0;entryX=0;entryY=1;entryDx=0;entryDy=0;exitX=0.5;exitY=0;exitDx=0;exitDy=0;" edge="1" parent="1" source="HOYsdUXAlJBk6kTXdH8x-148" target="HOYsdUXAlJBk6kTXdH8x-151">
          <mxGeometry width="50" height="50" relative="1" as="geometry">
            <mxPoint x="450" y="2620" as="sourcePoint" />
            <mxPoint x="500" y="2570" as="targetPoint" />
          </mxGeometry>
        </mxCell>
        <mxCell id="HOYsdUXAlJBk6kTXdH8x-153" value="" style="endArrow=none;html=1;rounded=0;entryX=0.75;entryY=0;entryDx=0;entryDy=0;exitX=0.667;exitY=0.667;exitDx=0;exitDy=0;exitPerimeter=0;" edge="1" parent="1" source="HOYsdUXAlJBk6kTXdH8x-149" target="HOYsdUXAlJBk6kTXdH8x-5">
          <mxGeometry width="50" height="50" relative="1" as="geometry">
            <mxPoint x="575" y="2440" as="sourcePoint" />
            <mxPoint x="625" y="2390" as="targetPoint" />
          </mxGeometry>
        </mxCell>
        <mxCell id="HOYsdUXAlJBk6kTXdH8x-154" value="" style="endArrow=none;html=1;rounded=0;entryX=0;entryY=0;entryDx=0;entryDy=0;" edge="1" parent="1" target="HOYsdUXAlJBk6kTXdH8x-8">
          <mxGeometry width="50" height="50" relative="1" as="geometry">
            <mxPoint x="645" y="2300" as="sourcePoint" />
            <mxPoint x="128" y="2520" as="targetPoint" />
          </mxGeometry>
        </mxCell>
        <mxCell id="HOYsdUXAlJBk6kTXdH8x-155" value="scheduled_time" style="ellipse;whiteSpace=wrap;html=1;" vertex="1" parent="1">
          <mxGeometry x="1180" y="2430" width="100" height="42.5" as="geometry" />
        </mxCell>
        <mxCell id="HOYsdUXAlJBk6kTXdH8x-156" value="" style="endArrow=none;html=1;rounded=0;entryX=0.75;entryY=0;entryDx=0;entryDy=0;exitX=0;exitY=1;exitDx=0;exitDy=0;" edge="1" parent="1" source="HOYsdUXAlJBk6kTXdH8x-155" target="HOYsdUXAlJBk6kTXdH8x-8">
          <mxGeometry width="50" height="50" relative="1" as="geometry">
            <mxPoint x="650" y="2320" as="sourcePoint" />
            <mxPoint x="1045" y="2520" as="targetPoint" />
          </mxGeometry>
        </mxCell>
        <mxCell id="HOYsdUXAlJBk6kTXdH8x-157" value="" style="endArrow=none;html=1;rounded=0;exitX=0.25;exitY=0;exitDx=0;exitDy=0;" edge="1" parent="1" source="HOYsdUXAlJBk6kTXdH8x-7">
          <mxGeometry width="50" height="50" relative="1" as="geometry">
            <mxPoint x="1470" y="2370" as="sourcePoint" />
            <mxPoint x="1460" y="2400" as="targetPoint" />
          </mxGeometry>
        </mxCell>
        <mxCell id="HOYsdUXAlJBk6kTXdH8x-158" value="Vehicle_name" style="ellipse;whiteSpace=wrap;html=1;" vertex="1" parent="1">
          <mxGeometry x="1425" y="2360" width="85" height="40" as="geometry" />
        </mxCell>
      </root>
    </mxGraphModel>
  </diagram>
</mxfile>
